<svg width="22" height="22" viewBox="0 0 22 22" fill="none" xmlns="http://www.w3.org/2000/svg">
<path d="M10.3479 14.0158C10.3084 14.0593 10.2717 14.1052 10.2379 14.1533C10.2032 14.2044 10.1754 14.2598 10.1554 14.3183C10.1289 14.3702 10.1104 14.4258 10.1004 14.4833C10.0959 14.5443 10.0959 14.6056 10.1004 14.6666C10.0973 14.7868 10.1224 14.9061 10.1737 15.0149C10.2149 15.1287 10.2806 15.232 10.3661 15.3175C10.4516 15.4031 10.5549 15.4687 10.6687 15.5099C10.7784 15.5584 10.8971 15.5835 11.017 15.5835C11.137 15.5835 11.2556 15.5584 11.3654 15.5099C11.4791 15.4687 11.5824 15.4031 11.668 15.3175C11.7535 15.232 11.8192 15.1287 11.8604 15.0149C11.9011 14.9035 11.9198 14.7852 11.9154 14.6666C11.9161 14.5459 11.8929 14.4264 11.8473 14.3147C11.8017 14.203 11.7345 14.1014 11.6495 14.0158C11.5643 13.9298 11.4629 13.8616 11.3512 13.8151C11.2395 13.7686 11.1197 13.7446 10.9987 13.7446C10.8777 13.7446 10.7579 13.7686 10.6462 13.8151C10.5345 13.8616 10.4331 13.9298 10.3479 14.0158ZM10.9987 1.83325C9.18571 1.83325 7.41342 2.37087 5.90597 3.37811C4.39852 4.38536 3.22361 5.817 2.52981 7.49199C1.836 9.16698 1.65447 11.0101 2.00817 12.7882C2.36187 14.5664 3.23491 16.1997 4.51689 17.4817C5.79887 18.7637 7.43222 19.6368 9.21037 19.9904C10.9885 20.3441 12.8316 20.1626 14.5066 19.4688C16.1816 18.775 17.6133 17.6001 18.6205 16.0926C19.6278 14.5852 20.1654 12.8129 20.1654 10.9999C20.1654 9.79613 19.9283 8.60414 19.4676 7.49199C19.0069 6.37984 18.3317 5.36931 17.4805 4.51811C16.6293 3.6669 15.6188 2.99169 14.5066 2.53102C13.3945 2.07035 12.2025 1.83325 10.9987 1.83325ZM10.9987 18.3333C9.54831 18.3333 8.13048 17.9032 6.92452 17.0974C5.71856 16.2916 4.77863 15.1463 4.22359 13.8063C3.66854 12.4663 3.52332 10.9918 3.80628 9.56926C4.08924 8.14673 4.78767 6.84005 5.81325 5.81447C6.83884 4.78888 8.14551 4.09045 9.56804 3.80749C10.9906 3.52454 12.4651 3.66976 13.805 4.2248C15.145 4.77984 16.2903 5.71978 17.0961 6.92574C17.9019 8.1317 18.332 9.54952 18.332 10.9999C18.332 12.9448 17.5594 14.8101 16.1842 16.1854C14.8089 17.5606 12.9436 18.3333 10.9987 18.3333ZM10.9987 6.41658C10.5157 6.41628 10.0411 6.5432 9.6227 6.78457C9.20431 7.02595 8.85688 7.37327 8.61537 7.79158C8.54904 7.89592 8.50451 8.01259 8.48444 8.13458C8.46438 8.25657 8.4692 8.38136 8.49861 8.50144C8.52802 8.62152 8.58142 8.73441 8.6556 8.83332C8.72977 8.93222 8.82318 9.01511 8.93022 9.07698C9.03725 9.13885 9.1557 9.17842 9.27842 9.19333C9.40115 9.20824 9.52563 9.19817 9.64436 9.16372C9.7631 9.12928 9.87363 9.07117 9.96933 8.99289C10.065 8.91462 10.1439 8.8178 10.2012 8.70825C10.282 8.56836 10.3983 8.4523 10.5383 8.37182C10.6783 8.29133 10.8372 8.24928 10.9987 8.24992C11.2418 8.24992 11.475 8.3465 11.6469 8.5184C11.8188 8.69031 11.9154 8.92347 11.9154 9.16658C11.9154 9.4097 11.8188 9.64286 11.6469 9.81477C11.475 9.98667 11.2418 10.0833 10.9987 10.0833C10.7556 10.0833 10.5224 10.1798 10.3505 10.3517C10.1786 10.5236 10.082 10.7568 10.082 10.9999V11.9166C10.082 12.1597 10.1786 12.3929 10.3505 12.5648C10.5224 12.7367 10.7556 12.8333 10.9987 12.8333C11.2418 12.8333 11.475 12.7367 11.6469 12.5648C11.8188 12.3929 11.9154 12.1597 11.9154 11.9166V11.7516C12.5216 11.5316 13.0313 11.1055 13.3552 10.5479C13.6792 9.99022 13.7969 9.33644 13.6876 8.70082C13.5784 8.0652 13.2493 7.48818 12.7578 7.07064C12.2663 6.6531 11.6436 6.42159 10.9987 6.41658Z" fill="#CDE7BE"/>
</svg>
