<svg width="22" height="22" viewBox="0 0 22 22" fill="none" xmlns="http://www.w3.org/2000/svg">
<path d="M3.66797 10.9999C3.66797 11.243 3.76455 11.4762 3.93645 11.6481C4.10836 11.82 4.34152 11.9166 4.58464 11.9166H11.5421L9.4338 14.0158C9.34788 14.101 9.27969 14.2024 9.23315 14.3141C9.18661 14.4258 9.16265 14.5456 9.16265 14.6666C9.16265 14.7876 9.18661 14.9074 9.23315 15.0191C9.27969 15.1308 9.34788 15.2322 9.4338 15.3174C9.51902 15.4033 9.6204 15.4715 9.73211 15.5181C9.84381 15.5646 9.96362 15.5886 10.0846 15.5886C10.2056 15.5886 10.3255 15.5646 10.4372 15.5181C10.5489 15.4715 10.6503 15.4033 10.7355 15.3174L14.4021 11.6508C14.4856 11.5636 14.551 11.4608 14.5946 11.3483C14.6863 11.1251 14.6863 10.8748 14.5946 10.6516C14.551 10.5391 14.4856 10.4363 14.4021 10.3491L10.7355 6.68242C10.65 6.59695 10.5485 6.52915 10.4369 6.4829C10.3252 6.43664 10.2055 6.41283 10.0846 6.41283C9.96376 6.41283 9.84408 6.43664 9.73241 6.4829C9.62074 6.52915 9.51927 6.59695 9.4338 6.68242C9.34833 6.76789 9.28054 6.86935 9.23428 6.98102C9.18803 7.09269 9.16422 7.21238 9.16422 7.33325C9.16422 7.45412 9.18803 7.57381 9.23428 7.68548C9.28054 7.79715 9.34833 7.89862 9.4338 7.98409L11.5421 10.0833H4.58464C4.34152 10.0833 4.10836 10.1798 3.93645 10.3517C3.76455 10.5236 3.66797 10.7568 3.66797 10.9999ZM15.5846 1.83325H6.41797C5.68862 1.83325 4.98915 2.12298 4.47343 2.63871C3.9577 3.15443 3.66797 3.85391 3.66797 4.58325V7.33325C3.66797 7.57637 3.76455 7.80952 3.93645 7.98143C4.10836 8.15334 4.34152 8.24992 4.58464 8.24992C4.82775 8.24992 5.06091 8.15334 5.23282 7.98143C5.40472 7.80952 5.5013 7.57637 5.5013 7.33325V4.58325C5.5013 4.34014 5.59788 4.10698 5.76979 3.93507C5.9417 3.76316 6.17485 3.66659 6.41797 3.66659H15.5846C15.8278 3.66659 16.0609 3.76316 16.2328 3.93507C16.4047 4.10698 16.5013 4.34014 16.5013 4.58325V17.4166C16.5013 17.6597 16.4047 17.8929 16.2328 18.0648C16.0609 18.2367 15.8278 18.3333 15.5846 18.3333H6.41797C6.17485 18.3333 5.9417 18.2367 5.76979 18.0648C5.59788 17.8929 5.5013 17.6597 5.5013 17.4166V14.6666C5.5013 14.4235 5.40472 14.1903 5.23282 14.0184C5.06091 13.8465 4.82775 13.7499 4.58464 13.7499C4.34152 13.7499 4.10836 13.8465 3.93645 14.0184C3.76455 14.1903 3.66797 14.4235 3.66797 14.6666V17.4166C3.66797 18.1459 3.9577 18.8454 4.47343 19.3611C4.98915 19.8769 5.68862 20.1666 6.41797 20.1666H15.5846C16.314 20.1666 17.0135 19.8769 17.5292 19.3611C18.0449 18.8454 18.3346 18.1459 18.3346 17.4166V4.58325C18.3346 3.85391 18.0449 3.15443 17.5292 2.63871C17.0135 2.12298 16.314 1.83325 15.5846 1.83325Z" fill="#CDE7BE"/>
</svg>
