<svg width="24" height="24" viewBox="0 0 24 24" fill="none" xmlns="http://www.w3.org/2000/svg">
<path d="M21.6392 13.0002C21.4948 12.8808 21.3199 12.8045 21.1342 12.7797C20.9486 12.755 20.7597 12.7828 20.5892 12.8602C19.5317 13.344 18.382 13.5931 17.2192 13.5902C15.068 13.5876 13.0051 12.7346 11.4803 11.2173C9.95546 9.69991 9.09235 7.64126 9.07916 5.49015C9.08372 4.81598 9.16763 4.1447 9.32916 3.49015C9.36344 3.31569 9.35058 3.13524 9.29191 2.96741C9.23325 2.79957 9.1309 2.6504 8.9954 2.53528C8.85991 2.42016 8.69617 2.34325 8.52106 2.31247C8.34595 2.28168 8.16579 2.29814 7.99916 2.36015C6.43148 3.06506 5.06873 4.15691 4.03892 5.53313C3.00911 6.90936 2.34604 8.52478 2.11201 10.2276C1.87798 11.9305 2.08066 13.6649 2.70103 15.2679C3.32139 16.8709 4.33907 18.2899 5.65846 19.3916C6.97785 20.4933 8.55564 21.2415 10.2436 21.566C11.9316 21.8904 13.6743 21.7804 15.3081 21.2464C16.9419 20.7123 18.4131 19.7717 19.5836 18.5129C20.754 17.2541 21.5852 15.7184 21.9992 14.0502C22.0496 13.8591 22.0423 13.6575 21.9782 13.4706C21.9142 13.2837 21.7962 13.12 21.6392 13.0002ZM12.1392 19.6902C10.4609 19.6783 8.82736 19.148 7.46215 18.1719C6.09694 17.1957 5.06682 15.8215 4.51284 14.2373C3.95886 12.6531 3.90809 10.9363 4.3675 9.32216C4.8269 7.70797 5.77402 6.27525 7.07916 5.22015V5.49015C7.08181 8.17863 8.15097 10.7562 10.052 12.6573C11.9531 14.5583 14.5307 15.6275 17.2192 15.6302C17.925 15.6327 18.6291 15.559 19.3192 15.4102C18.6291 16.7157 17.5956 17.808 16.3303 18.5693C15.065 19.3306 13.6158 19.732 12.1392 19.7302V19.6902Z" fill="#EAF4F4"/>
</svg>
