<svg width="22" height="22" viewBox="0 0 22 22" fill="none" xmlns="http://www.w3.org/2000/svg">
<path d="M6.41536 13.7499H9.16536C9.40848 13.7499 9.64164 13.6533 9.81355 13.4814C9.98545 13.3095 10.082 13.0764 10.082 12.8333C10.082 12.5901 9.98545 12.357 9.81355 12.1851C9.64164 12.0132 9.40848 11.9166 9.16536 11.9166H6.41536C6.17225 11.9166 5.93909 12.0132 5.76718 12.1851C5.59527 12.357 5.4987 12.5901 5.4987 12.8333C5.4987 13.0764 5.59527 13.3095 5.76718 13.4814C5.93909 13.6533 6.17225 13.7499 6.41536 13.7499ZM17.4154 4.58325H4.58203C3.85269 4.58325 3.15321 4.87298 2.63749 5.38871C2.12176 5.90443 1.83203 6.60391 1.83203 7.33325V15.5833C1.83203 16.3126 2.12176 17.0121 2.63749 17.5278C3.15321 18.0435 3.85269 18.3333 4.58203 18.3333H17.4154C18.1447 18.3333 18.8442 18.0435 19.3599 17.5278C19.8756 17.0121 20.1654 16.3126 20.1654 15.5833V7.33325C20.1654 6.60391 19.8756 5.90443 19.3599 5.38871C18.8442 4.87298 18.1447 4.58325 17.4154 4.58325ZM18.332 15.5833C18.332 15.8264 18.2355 16.0595 18.0635 16.2314C17.8916 16.4033 17.6585 16.4999 17.4154 16.4999H4.58203C4.33892 16.4999 4.10576 16.4033 3.93385 16.2314C3.76194 16.0595 3.66536 15.8264 3.66536 15.5833V10.0833H18.332V15.5833ZM18.332 8.24992H3.66536V7.33325C3.66536 7.09014 3.76194 6.85698 3.93385 6.68507C4.10576 6.51316 4.33892 6.41659 4.58203 6.41659H17.4154C17.6585 6.41659 17.8916 6.51316 18.0635 6.68507C18.2355 6.85698 18.332 7.09014 18.332 7.33325V8.24992Z" fill="#CDE7BE"/>
</svg>
