<svg width="22" height="22" viewBox="0 0 22 22" fill="none" xmlns="http://www.w3.org/2000/svg">
<path d="M20.1673 8.86418C20.1094 8.69651 20.0042 8.54924 19.8642 8.44022C19.7243 8.33121 19.5557 8.26513 19.379 8.25001L14.1632 7.48918L11.8257 2.75001C11.7506 2.59503 11.6334 2.46432 11.4875 2.37287C11.3416 2.28142 11.1729 2.23291 11.0007 2.23291C10.8285 2.23291 10.6597 2.28142 10.5138 2.37287C10.3679 2.46432 10.2507 2.59503 10.1757 2.75001L7.83817 7.48001L2.62234 8.25001C2.45268 8.27412 2.29318 8.34531 2.16194 8.45549C2.0307 8.56567 1.93297 8.71043 1.87984 8.87334C1.8312 9.03255 1.82684 9.20199 1.86721 9.36348C1.90759 9.52497 1.99117 9.67243 2.109 9.79001L5.89484 13.4567L4.97817 18.6633C4.94545 18.8352 4.96258 19.0128 5.02755 19.1753C5.09253 19.3377 5.20262 19.4781 5.34484 19.58C5.48345 19.6791 5.64695 19.7376 5.81696 19.7489C5.98698 19.7603 6.15679 19.724 6.30734 19.6442L11.0007 17.1967L15.6757 19.6533C15.8043 19.7259 15.9496 19.7638 16.0973 19.7633C16.2915 19.764 16.4809 19.7031 16.6382 19.5892C16.7804 19.4873 16.8905 19.3469 16.9555 19.1844C17.0204 19.022 17.0376 18.8444 17.0048 18.6725L16.0882 13.4658L19.874 9.79918C20.0064 9.68705 20.1042 9.53967 20.1561 9.37416C20.208 9.20866 20.2119 9.03181 20.1673 8.86418ZM14.5298 12.5308C14.4223 12.6348 14.3419 12.7635 14.2956 12.9057C14.2492 13.0479 14.2384 13.1993 14.264 13.3467L14.924 17.1875L11.4773 15.3542C11.3447 15.2836 11.1968 15.2466 11.0465 15.2466C10.8962 15.2466 10.7483 15.2836 10.6157 15.3542L7.169 17.1875L7.829 13.3467C7.85461 13.1993 7.84377 13.0479 7.79744 12.9057C7.7511 12.7635 7.67067 12.6348 7.56317 12.5308L4.81317 9.78084L8.67234 9.22168C8.82084 9.20102 8.962 9.14426 9.08346 9.05636C9.20492 8.96846 9.30297 8.85211 9.369 8.71751L11.0007 5.22501L12.724 8.72668C12.79 8.86128 12.8881 8.97763 13.0095 9.06553C13.131 9.15342 13.2722 9.21019 13.4207 9.23084L17.2798 9.79001L14.5298 12.5308Z" fill="#CDE7BE"/>
</svg>
