<svg width="18" height="18" viewBox="0 0 18 18" fill="none" xmlns="http://www.w3.org/2000/svg">
<path d="M6.5325 5.78242L8.25 4.05742V11.2499C8.25 11.4488 8.32902 11.6396 8.46967 11.7803C8.61032 11.9209 8.80109 11.9999 9 11.9999C9.19891 11.9999 9.38968 11.9209 9.53033 11.7803C9.67098 11.6396 9.75 11.4488 9.75 11.2499V4.05742L11.4675 5.78242C11.5372 5.85272 11.6202 5.90851 11.7116 5.94659C11.803 5.98467 11.901 6.00427 12 6.00427C12.099 6.00427 12.197 5.98467 12.2884 5.94659C12.3798 5.90851 12.4628 5.85272 12.5325 5.78242C12.6028 5.7127 12.6586 5.62975 12.6967 5.53835C12.7347 5.44696 12.7543 5.34893 12.7543 5.24992C12.7543 5.15091 12.7347 5.05288 12.6967 4.96149C12.6586 4.8701 12.6028 4.78714 12.5325 4.71742L9.5325 1.71742C9.46117 1.64914 9.37706 1.59562 9.285 1.55992C9.1024 1.48491 8.8976 1.48491 8.715 1.55992C8.62294 1.59562 8.53883 1.64914 8.4675 1.71742L5.4675 4.71742C5.39757 4.78735 5.3421 4.87037 5.30426 4.96174C5.26641 5.0531 5.24693 5.15103 5.24693 5.24992C5.24693 5.34882 5.26641 5.44674 5.30426 5.53811C5.3421 5.62948 5.39757 5.71249 5.4675 5.78242C5.53743 5.85235 5.62045 5.90782 5.71181 5.94567C5.80318 5.98351 5.90111 6.00299 6 6.00299C6.09889 6.00299 6.19682 5.98351 6.28819 5.94567C6.37955 5.90782 6.46257 5.85235 6.5325 5.78242ZM15.75 8.99992C15.5511 8.99992 15.3603 9.07894 15.2197 9.21959C15.079 9.36024 15 9.55101 15 9.74992V14.2499C15 14.4488 14.921 14.6396 14.7803 14.7803C14.6397 14.9209 14.4489 14.9999 14.25 14.9999H3.75C3.55109 14.9999 3.36032 14.9209 3.21967 14.7803C3.07902 14.6396 3 14.4488 3 14.2499V9.74992C3 9.55101 2.92098 9.36024 2.78033 9.21959C2.63968 9.07894 2.44891 8.99992 2.25 8.99992C2.05109 8.99992 1.86032 9.07894 1.71967 9.21959C1.57902 9.36024 1.5 9.55101 1.5 9.74992V14.2499C1.5 14.8467 1.73705 15.419 2.15901 15.8409C2.58097 16.2629 3.15326 16.4999 3.75 16.4999H14.25C14.8467 16.4999 15.419 16.2629 15.841 15.8409C16.2629 15.419 16.5 14.8467 16.5 14.2499V9.74992C16.5 9.55101 16.421 9.36024 16.2803 9.21959C16.1397 9.07894 15.9489 8.99992 15.75 8.99992Z" fill="#313333"/>
</svg>
