<svg width="25" height="24" viewBox="0 0 25 24" fill="none" xmlns="http://www.w3.org/2000/svg">
<path d="M13.5 23C13.2167 23 12.9793 22.904 12.788 22.712C12.596 22.5207 12.5 22.2833 12.5 22C12.5 21.7167 12.596 21.4793 12.788 21.288C12.9793 21.096 13.2167 21 13.5 21H19.5V20H17.5C16.95 20 16.4793 19.8043 16.088 19.413C15.696 19.021 15.5 18.55 15.5 18V14C15.5 13.45 15.696 12.979 16.088 12.587C16.4793 12.1957 16.95 12 17.5 12H19.5V11C19.5 9.06667 18.8167 7.41667 17.45 6.05C16.0833 4.68333 14.4333 4 12.5 4C10.5667 4 8.91667 4.68333 7.55 6.05C6.18333 7.41667 5.5 9.06667 5.5 11V12H7.5C8.05 12 8.52067 12.1957 8.912 12.587C9.304 12.979 9.5 13.45 9.5 14V18C9.5 18.55 9.304 19.021 8.912 19.413C8.52067 19.8043 8.05 20 7.5 20H5.5C4.95 20 4.479 19.8043 4.087 19.413C3.69567 19.021 3.5 18.55 3.5 18V11C3.5 9.76667 3.73733 8.604 4.212 7.512C4.68733 6.42067 5.33333 5.46667 6.15 4.65C6.96667 3.83333 7.92067 3.18733 9.012 2.712C10.104 2.23733 11.2667 2 12.5 2C13.7333 2 14.896 2.23733 15.988 2.712C17.0793 3.18733 18.0333 3.83333 18.85 4.65C19.6667 5.46667 20.3127 6.42067 20.788 7.512C21.2627 8.604 21.5 9.76667 21.5 11V21C21.5 21.55 21.3043 22.021 20.913 22.413C20.521 22.8043 20.05 23 19.5 23H13.5ZM5.5 18H7.5V14H5.5V18ZM17.5 18H19.5V14H17.5V18ZM5.5 18H7.5H5.5ZM17.5 18H19.5H17.5Z" fill="#CDE7BE"/>
</svg>
