<svg width="15" height="15" viewBox="0 0 15 15" fill="none" xmlns="http://www.w3.org/2000/svg">
<path d="M7.49935 1.6665C6.00391 1.67077 4.56722 2.2492 3.48602 3.28234V2.24984C3.48602 2.09513 3.42456 1.94675 3.31516 1.83736C3.20577 1.72796 3.05739 1.6665 2.90268 1.6665C2.74797 1.6665 2.5996 1.72796 2.4902 1.83736C2.38081 1.94675 2.31935 2.09513 2.31935 2.24984V4.87484C2.31935 5.02955 2.38081 5.17792 2.4902 5.28732C2.5996 5.39671 2.74797 5.45817 2.90268 5.45817H5.52768C5.68239 5.45817 5.83076 5.39671 5.94016 5.28732C6.04956 5.17792 6.11102 5.02955 6.11102 4.87484C6.11102 4.72013 6.04956 4.57175 5.94016 4.46236C5.83076 4.35296 5.68239 4.2915 5.52768 4.2915H4.12768C4.87772 3.50771 5.87739 3.00972 6.95483 2.88314C8.03226 2.75657 9.12013 3.00932 10.0314 3.59795C10.9427 4.18657 11.6204 5.07429 11.948 6.10847C12.2757 7.14264 12.2328 8.25867 11.8268 9.26465C11.4207 10.2706 10.6769 11.1037 9.72311 11.6207C8.76936 12.1376 7.6653 12.3062 6.60076 12.0973C5.53621 11.8884 4.5777 11.3152 3.89003 10.4761C3.20235 9.63708 2.82847 8.58467 2.83268 7.49984C2.83268 7.34513 2.77122 7.19675 2.66183 7.08736C2.55243 6.97796 2.40406 6.9165 2.24935 6.9165C2.09464 6.9165 1.94627 6.97796 1.83687 7.08736C1.72747 7.19675 1.66602 7.34513 1.66602 7.49984C1.66602 8.65356 2.00813 9.78138 2.64911 10.7407C3.29008 11.7 4.20113 12.4476 5.26703 12.8891C6.33293 13.3306 7.50582 13.4462 8.63738 13.2211C9.76893 12.996 10.8083 12.4404 11.6241 11.6246C12.4399 10.8088 12.9955 9.76942 13.2206 8.63786C13.4457 7.50631 13.3302 6.33342 12.8886 5.26752C12.4471 4.20161 11.6995 3.29057 10.7402 2.6496C9.78089 2.00862 8.65307 1.6665 7.49935 1.6665Z" fill="#CDE7BE"/>
</svg>
