<svg width="20" height="20" viewBox="0 0 20 20" fill="none" xmlns="http://www.w3.org/2000/svg">
<path d="M15.0028 11.6666C14.5105 11.6699 14.0249 11.7821 13.5811 11.9954C13.1374 12.2086 12.7463 12.5176 12.4361 12.8999L8.18614 10.9416C8.38597 10.3297 8.38597 9.67014 8.18614 9.05827L12.4361 7.09993C12.9375 7.7049 13.6364 8.11333 14.4096 8.25313C15.1828 8.39293 15.9805 8.25512 16.6619 7.86402C17.3434 7.47292 17.8648 6.85366 18.1341 6.11555C18.4034 5.37744 18.4033 4.56792 18.1339 3.82985C17.8644 3.09179 17.3429 2.47264 16.6614 2.08166C15.9799 1.69068 15.1822 1.55301 14.409 1.69295C13.6359 1.83289 12.937 2.24145 12.4358 2.84651C11.9345 3.45157 11.6631 4.21425 11.6695 4.99993C11.672 5.19846 11.6915 5.39641 11.7278 5.5916L7.32781 7.6166C6.85871 7.15791 6.26468 6.84786 5.62015 6.72529C4.97562 6.60272 4.30924 6.67307 3.70452 6.92754C3.09979 7.18201 2.58361 7.60928 2.22064 8.15582C1.85768 8.70235 1.66406 9.34385 1.66406 9.99993C1.66406 10.656 1.85768 11.2975 2.22064 11.844C2.58361 12.3906 3.09979 12.8179 3.70452 13.0723C4.30924 13.3268 4.97562 13.3971 5.62015 13.2746C6.26468 13.152 6.85871 12.842 7.32781 12.3833L11.7278 14.4083C11.6915 14.6035 11.672 14.8014 11.6695 14.9999C11.6695 15.6592 11.865 16.3037 12.2312 16.8518C12.5975 17.4 13.1181 17.8272 13.7272 18.0795C14.3363 18.3318 15.0065 18.3978 15.6531 18.2692C16.2997 18.1406 16.8937 17.8231 17.3598 17.357C17.826 16.8908 18.1435 16.2968 18.2721 15.6502C18.4007 15.0036 18.3347 14.3334 18.0824 13.7243C17.8301 13.1152 17.4029 12.5946 16.8547 12.2284C16.3065 11.8621 15.6621 11.6666 15.0028 11.6666ZM15.0028 3.33327C15.3324 3.33327 15.6547 3.43101 15.9288 3.61415C16.2028 3.79729 16.4165 4.05758 16.5426 4.36213C16.6688 4.66667 16.7018 5.00178 16.6375 5.32508C16.5731 5.64838 16.4144 5.94536 16.1813 6.17844C15.9482 6.41153 15.6513 6.57027 15.328 6.63457C15.0047 6.69888 14.6695 6.66588 14.365 6.53973C14.0605 6.41359 13.8002 6.19996 13.617 5.92588C13.4339 5.6518 13.3361 5.32957 13.3361 4.99993C13.3361 4.5579 13.5117 4.13398 13.8243 3.82142C14.1369 3.50886 14.5608 3.33327 15.0028 3.33327ZM5.00281 11.6666C4.67318 11.6666 4.35094 11.5689 4.07686 11.3857C3.80278 11.2026 3.58916 10.9423 3.46301 10.6377C3.33687 10.3332 3.30386 9.99808 3.36817 9.67478C3.43248 9.35148 3.59121 9.05451 3.8243 8.82142C4.05739 8.58833 4.35436 8.4296 4.67766 8.36529C5.00096 8.30098 5.33607 8.33399 5.64062 8.46013C5.94516 8.58628 6.20546 8.7999 6.38859 9.07398C6.57173 9.34806 6.66948 9.6703 6.66948 9.99993C6.66948 10.442 6.49388 10.8659 6.18132 11.1784C5.86876 11.491 5.44484 11.6666 5.00281 11.6666ZM15.0028 16.6666C14.6732 16.6666 14.3509 16.5689 14.0769 16.3857C13.8028 16.2026 13.5892 15.9423 13.463 15.6377C13.3369 15.3332 13.3039 14.9981 13.3682 14.6748C13.4325 14.3515 13.5912 14.0545 13.8243 13.8214C14.0574 13.5883 14.3544 13.4296 14.6777 13.3653C15.001 13.301 15.3361 13.334 15.6406 13.4601C15.9452 13.5863 16.2055 13.7999 16.3886 14.074C16.5717 14.3481 16.6695 14.6703 16.6695 14.9999C16.6695 15.442 16.4939 15.8659 16.1813 16.1784C15.8688 16.491 15.4448 16.6666 15.0028 16.6666Z" fill="#2D3047"/>
</svg>
