<svg width="20" height="20" viewBox="0 0 20 20" fill="none" xmlns="http://www.w3.org/2000/svg">
<path d="M14.2423 2.34977C13.4758 1.71943 12.5784 1.26813 11.6153 1.02881C10.6523 0.789488 9.64794 0.76818 8.6756 0.966439C7.38092 1.22796 6.19309 1.86817 5.26284 2.80584C4.33258 3.74351 3.70183 4.93638 3.4506 6.23311C3.26714 7.20537 3.30048 8.20615 3.54824 9.16405C3.796 10.122 4.25207 11.0134 4.88394 11.7748C5.47034 12.4365 5.80646 13.2827 5.83394 14.1664V16.6664C5.83394 17.3295 6.09733 17.9654 6.56617 18.4342C7.03501 18.903 7.67089 19.1664 8.33394 19.1664H11.6673C12.3303 19.1664 12.9662 18.903 13.435 18.4342C13.9039 17.9654 14.1673 17.3295 14.1673 16.6664V14.3248C14.1952 13.3491 14.5537 12.4118 15.1839 11.6664C16.2882 10.3004 16.8087 8.55379 16.6324 6.80613C16.4561 5.05847 15.5971 3.45101 14.2423 2.33311V2.34977ZM12.5006 16.6664C12.5006 16.8875 12.4128 17.0994 12.2565 17.2557C12.1002 17.412 11.8883 17.4998 11.6673 17.4998H8.33394C8.11292 17.4998 7.90096 17.412 7.74468 17.2557C7.5884 17.0994 7.5006 16.8875 7.5006 16.6664V15.8331H12.5006V16.6664ZM13.8923 10.6331C13.0544 11.6269 12.5655 12.8681 12.5006 14.1664H10.8339V11.6664C10.8339 11.4454 10.7461 11.2335 10.5899 11.0772C10.4336 10.9209 10.2216 10.8331 10.0006 10.8331C9.77959 10.8331 9.56763 10.9209 9.41135 11.0772C9.25507 11.2335 9.16727 11.4454 9.16727 11.6664V14.1664H7.5006C7.47862 12.8899 7.00639 11.6621 6.16727 10.6998C5.61364 10.0364 5.24135 9.24096 5.08669 8.39089C4.93204 7.54083 5.00031 6.6652 5.28484 5.84938C5.56937 5.03356 6.06045 4.30539 6.7102 3.73588C7.35995 3.16636 8.1462 2.77494 8.99227 2.59977C9.7194 2.45006 10.4707 2.46414 11.1917 2.641C11.9127 2.81785 12.5853 3.15304 13.1606 3.62223C13.736 4.09142 14.1996 4.68284 14.5178 5.35354C14.8361 6.02424 15.001 6.75739 15.0006 7.49977C15.0068 8.64132 14.6148 9.74933 13.8923 10.6331Z" fill="#EAF4F4"/>
</svg>
