<svg width="16" height="16" viewBox="0 0 16 16" fill="none" xmlns="http://www.w3.org/2000/svg">
<path fill-rule="evenodd" clip-rule="evenodd" d="M4.66797 9.33263C5.02159 9.33263 5.36073 9.19215 5.61078 8.9421C5.86083 8.69205 6.0013 8.35291 6.0013 7.99929C6.0013 7.64567 5.86083 7.30653 5.61078 7.05648C5.36073 6.80644 5.02159 6.66596 4.66797 6.66596C4.31435 6.66596 3.97521 6.80644 3.72516 7.05648C3.47511 7.30653 3.33464 7.64567 3.33464 7.99929C3.33464 8.35291 3.47511 8.69205 3.72516 8.9421C3.97521 9.19215 4.31435 9.33263 4.66797 9.33263ZM6.97797 6.66596C6.71297 6.20756 6.31757 5.83838 5.8421 5.6054C5.36663 5.37243 4.83259 5.2862 4.30795 5.35768C3.78332 5.42917 3.29182 5.65514 2.89601 6.00683C2.50021 6.35853 2.218 6.82004 2.0853 7.33263H1.33464C1.15782 7.33263 0.988255 7.40286 0.863231 7.52789C0.738207 7.65291 0.667969 7.82248 0.667969 7.99929C0.667969 8.1761 0.738207 8.34567 0.863231 8.4707C0.988255 8.59572 1.15782 8.66596 1.33464 8.66596H2.0853C2.24912 9.29295 2.63554 9.83889 3.17242 10.2018C3.70929 10.5648 4.35991 10.7199 5.00278 10.6382C5.64566 10.5566 6.23685 10.2438 6.66595 9.75815C7.09506 9.27253 7.33274 8.64733 7.33463 7.99929H8.66797C8.66733 8.6488 8.90376 9.27622 9.33288 9.76378C9.76201 10.2513 10.3543 10.5655 10.9987 10.6473C11.643 10.7292 12.295 10.573 12.8324 10.2082C13.3698 9.84341 13.7556 9.29501 13.9173 8.66596H14.668C14.8448 8.66596 15.0143 8.59572 15.1394 8.4707C15.2644 8.34567 15.3346 8.1761 15.3346 7.99929C15.3346 7.82248 15.2644 7.65291 15.1394 7.52789C15.0143 7.40286 14.8448 7.33263 14.668 7.33263H13.9173C13.7846 6.82004 13.5024 6.35853 13.1066 6.00683C12.7108 5.65514 12.2193 5.42917 11.6947 5.35768C11.17 5.2862 10.636 5.37243 10.1605 5.6054C9.68503 5.83838 9.28963 6.20756 9.02463 6.66596H6.97797ZM10.0013 7.99929C10.0013 8.35291 10.1418 8.69205 10.3918 8.9421C10.6419 9.19215 10.981 9.33263 11.3346 9.33263C11.6883 9.33263 12.0274 9.19215 12.2774 8.9421C12.5275 8.69205 12.668 8.35291 12.668 7.99929C12.668 7.64567 12.5275 7.30653 12.2774 7.05648C12.0274 6.80644 11.6883 6.66596 11.3346 6.66596C10.981 6.66596 10.6419 6.80644 10.3918 7.05648C10.1418 7.30653 10.0013 7.64567 10.0013 7.99929Z" fill="#181A1A"/>
</svg>
