<svg width="20" height="20" viewBox="0 0 20 20" fill="none" xmlns="http://www.w3.org/2000/svg">
<path d="M17.2263 11.9252L11.668 15.1335C11.33 15.3277 10.9469 15.4296 10.5571 15.4292C10.1673 15.4288 9.7845 15.3259 9.44695 15.131C9.10939 14.936 8.82898 14.6559 8.63377 14.3185C8.43856 13.9811 8.33542 13.5983 8.33467 13.2085L5.00133 15.1335C4.66334 15.3277 4.28026 15.4296 3.89047 15.4292C3.50067 15.4288 3.11783 15.3259 2.78028 15.131C2.44273 14.936 2.16231 14.6559 1.9671 14.3185C1.7719 13.9811 1.66875 13.5983 1.668 13.2085V6.79184C1.66597 6.40273 1.76756 6.0201 1.96234 5.68326C2.15713 5.34641 2.43808 5.0675 2.77633 4.87517C3.11384 4.67333 3.49975 4.56677 3.893 4.56684C4.28222 4.56892 4.6642 4.67231 5.00133 4.86684L8.33467 6.79184C8.33288 6.40166 8.4345 6.01798 8.62919 5.67984C8.82387 5.34171 9.10467 5.06119 9.443 4.86684C9.78096 4.67073 10.1648 4.56745 10.5555 4.56745C10.9462 4.56745 11.33 4.67073 11.668 4.86684L17.2263 8.07517C17.5637 8.27071 17.8437 8.55147 18.0384 8.88932C18.2331 9.22717 18.3355 9.61025 18.3355 10.0002C18.3355 10.3901 18.2331 10.7732 18.0384 11.111C17.8437 11.4489 17.5637 11.7296 17.2263 11.9252ZM8.33467 8.71684L4.168 6.31684C4.08386 6.26919 3.98879 6.24422 3.8921 6.24436C3.79541 6.2445 3.70041 6.26974 3.61641 6.31762C3.5324 6.3655 3.46227 6.43438 3.41289 6.51751C3.3635 6.60064 3.33654 6.69516 3.33467 6.79184V13.2085C3.33654 13.3052 3.3635 13.3997 3.41289 13.4828C3.46227 13.566 3.5324 13.6348 3.61641 13.6827C3.70041 13.7306 3.79541 13.7558 3.8921 13.756C3.98879 13.7561 4.08386 13.7311 4.168 13.6835L8.33467 11.2835V8.71684ZM16.393 9.55017L10.8347 6.3085C10.7493 6.26108 10.6532 6.23619 10.5555 6.23619C10.4578 6.23619 10.3617 6.26108 10.2763 6.3085C10.1917 6.35737 10.1216 6.4279 10.0732 6.51285C10.0249 6.59781 10.0001 6.6941 10.0013 6.79184V13.2085C10.0001 13.3062 10.0249 13.4025 10.0732 13.4875C10.1216 13.5724 10.1917 13.643 10.2763 13.6918C10.3638 13.7381 10.4607 13.7637 10.5597 13.7668C10.6565 13.7677 10.7517 13.7417 10.8347 13.6918L16.393 10.4835C16.4778 10.4345 16.5482 10.364 16.5971 10.2792C16.6461 10.1943 16.6718 10.0981 16.6718 10.0002C16.6718 9.90223 16.6461 9.80601 16.5971 9.72117C16.5482 9.63634 16.4778 9.56587 16.393 9.51684V9.55017Z" fill="#2D3047"/>
</svg>
