<svg width="64" height="64" viewBox="0 0 64 64" fill="none" xmlns="http://www.w3.org/2000/svg">
<path d="M39.254 23.4402L27.814 34.9068L23.414 30.5068C23.1749 30.2277 22.8808 30.001 22.5499 29.8409C22.2191 29.6808 21.8587 29.5909 21.4915 29.5767C21.1242 29.5625 20.758 29.6244 20.4158 29.7585C20.0736 29.8925 19.7628 30.0959 19.5029 30.3558C19.243 30.6156 19.0397 30.9264 18.9056 31.2686C18.7716 31.6108 18.7097 31.9771 18.7239 32.3443C18.7381 32.7116 18.828 33.0719 18.9881 33.4028C19.1481 33.7336 19.3748 34.0278 19.654 34.2668L25.9207 40.5602C26.1698 40.8073 26.4653 41.0028 26.7902 41.1356C27.1151 41.2683 27.463 41.3355 27.814 41.3335C28.5136 41.3306 29.184 41.0528 29.6807 40.5602L43.014 27.2268C43.2639 26.9789 43.4623 26.684 43.5977 26.359C43.7331 26.0341 43.8028 25.6855 43.8028 25.3335C43.8028 24.9815 43.7331 24.6329 43.5977 24.308C43.4623 23.983 43.2639 23.6881 43.014 23.4402C42.5144 22.9435 41.8385 22.6647 41.134 22.6647C40.4295 22.6647 39.7536 22.9435 39.254 23.4402ZM32.0007 5.3335C26.7265 5.3335 21.5708 6.89747 17.1855 9.82764C12.8001 12.7578 9.38221 16.9226 7.36388 21.7953C5.34554 26.668 4.81745 32.0297 5.84639 37.2026C6.87533 42.3754 9.41508 47.1269 13.1445 50.8563C16.8739 54.5857 21.6254 57.1255 26.7983 58.1544C31.9711 59.1834 37.3329 58.6553 42.2056 56.637C47.0783 54.6186 51.243 51.2007 54.1732 46.8154C57.1034 42.4301 58.6673 37.2743 58.6673 32.0002C58.6673 28.4982 57.9776 25.0306 56.6375 21.7953C55.2973 18.5599 53.3331 15.6202 50.8568 13.144C48.3806 10.6678 45.4409 8.7035 42.2056 7.36338C38.9702 6.02325 35.5026 5.3335 32.0007 5.3335ZM32.0007 53.3335C27.7813 53.3335 23.6567 52.0823 20.1485 49.7382C16.6402 47.394 13.9059 44.0622 12.2912 40.1641C10.6766 36.2659 10.2541 31.9765 11.0772 27.8382C11.9004 23.7 13.9322 19.8987 16.9157 16.9152C19.8992 13.9317 23.7005 11.8999 27.8387 11.0767C31.977 10.2536 36.2664 10.6761 40.1646 12.2907C44.0627 13.9054 47.3945 16.6397 49.7387 20.148C52.0828 23.6562 53.334 27.7808 53.334 32.0002C53.334 37.6581 51.0864 43.0843 47.0856 47.0851C43.0848 51.0859 37.6586 53.3335 32.0007 53.3335Z" fill="#CDE7BE"/>
</svg>
