<svg width="24" height="25" viewBox="0 0 24 25" fill="none" xmlns="http://www.w3.org/2000/svg">
<g filter="url(#filter0_d_100_2067)">
<path d="M18.8777 1.54509C18.3401 1.45249 17.7957 1.40483 17.2502 1.40259C15.389 1.40107 13.5665 1.93477 12.0002 2.94009C10.4298 1.94797 8.60767 1.42736 6.75019 1.44009C6.20467 1.44233 5.66029 1.48999 5.12269 1.58259C4.94659 1.61295 4.78712 1.70518 4.673 1.84269C4.55887 1.98019 4.49759 2.15392 4.50019 2.33259V11.3326C4.49858 11.4428 4.52128 11.552 4.56667 11.6524C4.61207 11.7529 4.67904 11.842 4.76282 11.9137C4.8466 11.9853 4.94513 12.0375 5.0514 12.0667C5.15768 12.0959 5.26908 12.1013 5.37769 12.0826C6.45245 11.8965 7.55359 11.9274 8.61623 12.1734C9.67888 12.4194 10.6816 12.8756 11.5652 13.5151L11.6552 13.5676H11.7377C11.8209 13.6022 11.9101 13.6201 12.0002 13.6201C12.0903 13.6201 12.1795 13.6022 12.2627 13.5676H12.3452L12.4352 13.5151C13.3127 12.8613 14.3124 12.3903 15.3753 12.1301C16.4381 11.8699 17.5424 11.8257 18.6227 12.0001C18.7313 12.0188 18.8427 12.0134 18.949 11.9842C19.0552 11.955 19.1538 11.9028 19.2376 11.8312C19.3213 11.7595 19.3883 11.6704 19.4337 11.5699C19.4791 11.4695 19.5018 11.3603 19.5002 11.2501V2.25009C19.4924 2.07921 19.4264 1.91612 19.3132 1.78789C19.1999 1.65966 19.0463 1.57399 18.8777 1.54509ZM11.2502 11.5126C9.8626 10.7826 8.31807 10.4016 6.75019 10.4026H6.00019V2.90259C6.24998 2.88819 6.50039 2.88819 6.75019 2.90259C8.35022 2.90082 9.91535 3.37036 11.2502 4.25259V11.5126ZM18.0002 10.4326H17.2502C15.6823 10.4316 14.1378 10.8126 12.7502 11.5426V4.25259C14.085 3.37036 15.6501 2.90082 17.2502 2.90259C17.5 2.88819 17.7504 2.88819 18.0002 2.90259V10.4326ZM18.8777 13.5451C18.3401 13.4525 17.7957 13.4048 17.2502 13.4026C15.389 13.4011 13.5665 13.9348 12.0002 14.9401C10.4338 13.9348 8.61141 13.4011 6.75019 13.4026C6.20467 13.4048 5.66029 13.4525 5.12269 13.5451C5.02506 13.5606 4.93145 13.5952 4.84726 13.647C4.76306 13.6988 4.68994 13.7667 4.63209 13.8469C4.57423 13.9271 4.5328 14.0179 4.51016 14.1141C4.48753 14.2103 4.48414 14.3101 4.50019 14.4076C4.5383 14.6024 4.65205 14.7741 4.81653 14.8851C4.981 14.9962 5.18279 15.0375 5.37769 15.0001C6.45245 14.814 7.55359 14.8449 8.61623 15.0909C9.67888 15.3369 10.6816 15.7931 11.5652 16.4326C11.6922 16.523 11.8443 16.5716 12.0002 16.5716C12.1561 16.5716 12.3082 16.523 12.4352 16.4326C13.3188 15.7931 14.3215 15.3369 15.3841 15.0909C16.4468 14.8449 17.5479 14.814 18.6227 15.0001C18.8176 15.0375 19.0194 14.9962 19.1838 14.8851C19.3483 14.7741 19.4621 14.6024 19.5002 14.4076C19.5162 14.3101 19.5128 14.2103 19.4902 14.1141C19.4676 14.0179 19.4261 13.9271 19.3683 13.8469C19.3104 13.7667 19.2373 13.6988 19.1531 13.647C19.0689 13.5952 18.9753 13.5606 18.8777 13.5451Z" fill="#EAF4F4"/>
</g>
<defs>
<filter id="filter0_d_100_2067" x="-1" y="0" width="26" height="26" filterUnits="userSpaceOnUse" color-interpolation-filters="sRGB">
<feFlood flood-opacity="0" result="BackgroundImageFix"/>
<feColorMatrix in="SourceAlpha" type="matrix" values="0 0 0 0 0 0 0 0 0 0 0 0 0 0 0 0 0 0 127 0" result="hardAlpha"/>
<feOffset dy="4"/>
<feGaussianBlur stdDeviation="2"/>
<feComposite in2="hardAlpha" operator="out"/>
<feColorMatrix type="matrix" values="0 0 0 0 0 0 0 0 0 0 0 0 0 0 0 0 0 0 0.25 0"/>
<feBlend mode="normal" in2="BackgroundImageFix" result="effect1_dropShadow_100_2067"/>
<feBlend mode="normal" in="SourceGraphic" in2="effect1_dropShadow_100_2067" result="shape"/>
</filter>
</defs>
</svg>
