<svg width="24" height="31" viewBox="0 0 24 31" fill="none" xmlns="http://www.w3.org/2000/svg">
<g filter="url(#filter0_d_96_2522)">
<path d="M12 4.875C12.6213 4.875 13.125 4.37132 13.125 3.75C13.125 3.12868 12.6213 2.625 12 2.625C11.3787 2.625 10.875 3.12868 10.875 3.75C10.875 4.37132 11.3787 4.875 12 4.875Z" stroke="#EAF4F4" stroke-width="2.25" stroke-linecap="round" stroke-linejoin="round"/>
<path d="M12 13.125C12.6213 13.125 13.125 12.6213 13.125 12C13.125 11.3787 12.6213 10.875 12 10.875C11.3787 10.875 10.875 11.3787 10.875 12C10.875 12.6213 11.3787 13.125 12 13.125Z" stroke="#EAF4F4" stroke-width="2.25" stroke-linecap="round" stroke-linejoin="round"/>
<path d="M12 21.375C12.6213 21.375 13.125 20.8713 13.125 20.25C13.125 19.6287 12.6213 19.125 12 19.125C11.3787 19.125 10.875 19.6287 10.875 20.25C10.875 20.8713 11.3787 21.375 12 21.375Z" stroke="#EAF4F4" stroke-width="2.25" stroke-linecap="round" stroke-linejoin="round"/>
</g>
<defs>
<filter id="filter0_d_96_2522" x="-4" y="0" width="32" height="32" filterUnits="userSpaceOnUse" color-interpolation-filters="sRGB">
<feFlood flood-opacity="0" result="BackgroundImageFix"/>
<feColorMatrix in="SourceAlpha" type="matrix" values="0 0 0 0 0 0 0 0 0 0 0 0 0 0 0 0 0 0 127 0" result="hardAlpha"/>
<feOffset dy="4"/>
<feGaussianBlur stdDeviation="2"/>
<feComposite in2="hardAlpha" operator="out"/>
<feColorMatrix type="matrix" values="0 0 0 0 0 0 0 0 0 0 0 0 0 0 0 0 0 0 0.25 0"/>
<feBlend mode="normal" in2="BackgroundImageFix" result="effect1_dropShadow_96_2522"/>
<feBlend mode="normal" in="SourceGraphic" in2="effect1_dropShadow_96_2522" result="shape"/>
</filter>
</defs>
</svg>
