<svg width="24" height="24" viewBox="0 0 24 24" fill="none" xmlns="http://www.w3.org/2000/svg">
<path d="M12.0144 4.1257C15.0242 4.0807 17.8404 5.25295 19.6584 7.5007H16.6877C16.439 7.5007 16.2006 7.59947 16.0248 7.77529C15.849 7.9511 15.7502 8.18956 15.7502 8.4382C15.7502 8.68684 15.849 8.9253 16.0248 9.10111C16.2006 9.27693 16.439 9.3757 16.6877 9.3757H21.5627C22.0802 9.3757 22.5002 8.9557 22.5002 8.4382V3.1882C22.5002 2.93956 22.4014 2.7011 22.2256 2.52528C22.0498 2.34947 21.8113 2.2507 21.5627 2.2507C21.314 2.2507 21.0756 2.34947 20.8998 2.52528C20.724 2.7011 20.6252 2.93956 20.6252 3.1882V5.75545C18.4127 3.38545 15.2462 2.2027 11.9867 2.25145C7.53019 2.31745 3.96319 4.70245 1.64794 8.30695C1.57992 8.41056 1.53312 8.52662 1.51024 8.64843C1.48737 8.77024 1.48888 8.89538 1.51468 9.0166C1.54048 9.13783 1.59006 9.25273 1.66055 9.35467C1.73104 9.45661 1.82105 9.54356 1.92536 9.6105C2.02968 9.67743 2.14623 9.72301 2.26827 9.74461C2.39031 9.76621 2.51543 9.76339 2.63637 9.73632C2.75732 9.70926 2.8717 9.65848 2.9729 9.58692C3.0741 9.51537 3.1601 9.42446 3.22594 9.31945C5.26069 6.1507 8.28919 4.18195 12.0137 4.1257H12.0144ZM15.8252 11.2507C14.3837 11.2507 13.3404 11.9107 12.7127 12.9742C12.1262 13.9657 11.9357 15.2414 11.9357 16.4999C11.9357 17.7599 12.1262 19.0349 12.7119 20.0264C13.3404 21.0899 14.3852 21.7499 15.8252 21.7499C17.2674 21.7499 18.3107 21.0899 18.9392 20.0264C19.5249 19.0349 19.7154 17.7592 19.7154 16.4999C19.7154 15.2414 19.5249 13.9657 18.9392 12.9742C18.3107 11.9114 17.2667 11.2507 15.8252 11.2507ZM13.8107 16.5007C13.8107 15.3779 13.9899 14.4974 14.3259 13.9282C14.6207 13.4302 15.0534 13.1257 15.8259 13.1257C16.5984 13.1257 17.0304 13.4302 17.3252 13.9282C17.6612 14.4974 17.8404 15.3779 17.8404 16.5007C17.8404 17.6227 17.6612 18.5032 17.3252 19.0732C17.0304 19.5704 16.5977 19.8757 15.8252 19.8757C15.0527 19.8757 14.6199 19.5704 14.3259 19.0732C13.9899 18.5032 13.8107 17.6227 13.8107 16.5007ZM9.93769 12.1882C9.9376 12.0039 9.88318 11.8237 9.78123 11.6701C9.67929 11.5166 9.53435 11.3965 9.36452 11.3248C9.19469 11.2532 9.00752 11.2332 8.8264 11.2674C8.64528 11.3016 8.47825 11.3884 8.34619 11.5169C8.23069 11.6294 8.13244 11.7269 8.04244 11.8169C7.83319 12.0262 7.66744 12.1919 7.43494 12.3884C7.11769 12.6562 6.67744 12.9757 5.89294 13.4467C5.78735 13.51 5.69528 13.5935 5.62197 13.6924C5.54866 13.7914 5.49555 13.9037 5.46567 14.0232C5.43579 14.1426 5.42973 14.2668 5.44784 14.3886C5.46594 14.5103 5.50786 14.6274 5.57119 14.7329C5.63452 14.8385 5.71802 14.9306 5.81694 15.0039C5.91585 15.0772 6.02824 15.1303 6.14768 15.1602C6.26712 15.1901 6.39127 15.1961 6.51305 15.178C6.63483 15.1599 6.75185 15.118 6.85744 15.0547C7.26976 14.8106 7.67185 14.5496 8.06269 14.2724V20.6249C8.06269 20.8736 8.16146 21.112 8.33727 21.2879C8.51309 21.4637 8.75155 21.5624 9.00019 21.5624C9.24883 21.5624 9.48728 21.4637 9.6631 21.2879C9.83891 21.112 9.93769 20.8736 9.93769 20.6249V12.1874V12.1882Z" fill="#EAF4F4"/>
</svg>
